<?xml version="1.0" encoding="UTF-8" standalone="no"?>
<svg width="116px" height="109px" viewBox="0 0 116 109" version="1.1" xmlns="http://www.w3.org/2000/svg" xmlns:xlink="http://www.w3.org/1999/xlink" xmlns:sketch="http://www.bohemiancoding.com/sketch/ns">
    <title>Color Schemes</title>
    <description>Created with Sketch (http://www.bohemiancoding.com/sketch)</description>
    <defs></defs>
    <g id="Page-1" stroke="none" stroke-width="1" fill="none" fill-rule="evenodd" sketch:type="MSPage">
        <g id="Icons" sketch:type="MSLayerGroup" transform="translate(-239.000000, -57.000000)" fill="#F7F7F7">
            <g id="Color-Schemes" transform="translate(243.000000, 63.000000)" sketch:type="MSShapeGroup">
                <path d="M97.9733726,80.0970153 L109,3.60387201 L83.6800462,0 L78.5023447,35.9191396 L63.9970527,0.323635386 L40.2878166,9.86265125 L55.299839,46.705523 L24.77348,22.8179403 L8.94781887,42.7878892 L36.4161324,64.2827642 L3.627703,59.6147351 L0,84.7760151 L70.0215126,94.7439849 L75.1738223,95.4768271 L76.4367841,98.5771444 L78.9505636,97.5656467 L84.6173316,102 L88.3057539,97.3462329 L95.3403624,98.347857 L97.0140075,86.7397688 L96.4697416,90.5147835 L100.144916,89.0359344 L98.3597683,84.6575316 L100.442993,82.028954 L97.9733726,80.0970153 L97.9733726,80.0970153 L97.9733726,80.0970153 L97.9733726,80.0970153 Z M86.0271237,3.57863942 L105.484904,6.34873891 L103.215105,22.0938747 L83.7573253,19.3237752 L86.0271237,3.57863942 L86.0271237,3.57863942 L86.0271237,3.57863942 L86.0271237,3.57863942 Z M83.3654097,22.0412154 L102.82319,24.8113149 L100.554495,40.5553536 L81.0967154,37.7852541 L83.3654097,22.0412154 L83.3654097,22.0412154 L83.3654097,22.0412154 L83.3654097,22.0412154 Z M44.1285892,11.7836193 L62.3465913,4.45190643 L68.3544914,19.1943211 L50.1353853,26.5260339 L44.1285892,11.7836193 L44.1285892,11.7836193 L44.1285892,11.7836193 L44.1285892,11.7836193 Z M51.1720296,29.0701371 L69.3911357,21.7384243 L75.3979318,36.4808389 L57.1788257,43.8136488 L51.1720296,29.0701371 L51.1720296,29.0701371 L51.1720296,29.0701371 L51.1720296,29.0701371 Z M13.2412263,42.561893 L25.4016489,27.2160903 L37.9771708,37.0557031 L25.8156442,52.4026029 L13.2412263,42.561893 L13.2412263,42.561893 L13.2412263,42.561893 L13.2412263,42.561893 Z M27.9849797,54.0997688 L40.1465062,38.7539661 L52.7209241,48.5935789 L40.5616055,63.9404786 L27.9849797,54.0997688 L27.9849797,54.0997688 L27.9849797,54.0997688 L27.9849797,54.0997688 Z M3.6012073,82.4436461 L6.38877579,63.1078032 L22.2332047,65.3633773 L19.4456362,84.6992202 L3.6012073,82.4436461 L3.6012073,82.4436461 L3.6012073,82.4436461 L3.6012073,82.4436461 Z M22.1802133,85.0886798 L24.9666778,65.7528368 L40.8111067,68.0084109 L38.0235382,87.3442538 L22.1802133,85.0886798 L22.1802133,85.0886798 L22.1802133,85.0886798 L22.1802133,85.0886798 Z M56.6014402,89.9892874 L40.7570113,87.7337134 L43.355798,69.7132563 L42.8269879,69.2974671 L57.8864817,81.0810863 L56.6014402,89.9892874 L56.6014402,89.9892874 L56.6014402,89.9892874 L56.6014402,89.9892874 Z M70.424468,91.9563323 L59.3371213,90.3776499 L60.3947414,83.0437429 L70.5613625,91.0007852 L70.424468,91.9563323 L70.424468,91.9563323 L70.424468,91.9563323 L70.424468,91.9563323 Z M70.0513202,87.0162302 L57.4757984,77.1766174 L64.2388259,68.6425168 L63.0454154,65.7133423 L55.3053589,75.4794515 L42.730941,65.6387416 L54.8902596,50.292939 L57.6369805,52.4420973 L71.1575157,85.6218553 L70.0513202,87.0162302 L70.0513202,87.0162302 L70.0513202,87.0162302 L70.0513202,87.0162302 Z M71.2899942,85.9454907 L72.4480771,77.9105566 L71.2679145,78.3855875 L65.2611184,63.6431729 L75.0755674,59.6937241 L75.289741,58.2082926 L71.2899942,85.9454907 L71.2899942,85.9454907 L71.2899942,85.9454907 L71.2899942,85.9454907 Z M64.2244741,61.1001667 L58.216574,46.3577521 L76.4367841,39.0260393 L77.6324025,41.959602 L75.5282023,56.5517182 L64.2244741,61.1001667 L64.2244741,61.1001667 L64.2244741,61.1001667 L64.2244741,61.1001667 Z M81.7977475,96.4214036 L78.4813689,95.9485668 L81.7977475,96.4214036 L81.7977475,96.4214036 L81.7977475,96.4214036 L81.7977475,96.4214036 Z M90.0058947,90.3644851 C88.1445717,90.3644851 86.6365248,88.8658887 86.6365248,87.0162302 C86.6365248,85.1665717 88.1445717,83.6679753 90.0058947,83.6679753 C91.8672176,83.6679753 93.3752646,85.1676687 93.3752646,87.0162302 C93.3741606,88.8658887 91.8672176,90.3644851 90.0058947,90.3644851 L90.0058947,90.3644851 L90.0058947,90.3644851 L90.0058947,90.3644851 Z M95.2310676,77.4783114 L75.7732876,74.7082119 L78.0430859,58.9630761 L97.500866,61.7331756 L95.2310676,77.4783114 L95.2310676,77.4783114 L95.2310676,77.4783114 L95.2310676,77.4783114 Z M78.4350015,56.246733 L80.7047998,40.5015972 L100.16258,43.2716967 L97.8927815,59.0157354 L78.4350015,56.246733 L78.4350015,56.246733 L78.4350015,56.246733 L78.4350015,56.246733 Z" id="Shape"></path>
            </g>
        </g>
    </g>
</svg>