<?xml version="1.0" encoding="UTF-8" standalone="no"?>
<svg width="116px" height="109px" viewBox="0 0 116 109" version="1.1" xmlns="http://www.w3.org/2000/svg" xmlns:xlink="http://www.w3.org/1999/xlink" xmlns:sketch="http://www.bohemiancoding.com/sketch/ns">
    <title>Templates</title>
    <description>Created with Sketch (http://www.bohemiancoding.com/sketch)</description>
    <defs></defs>
    <g id="Page-1" stroke="none" stroke-width="1" fill="none" fill-rule="evenodd" sketch:type="MSPage">
        <g id="Icons" sketch:type="MSLayerGroup" transform="translate(-439.000000, -57.000000)" fill="#F7F7F7">
            <g id="Templates" transform="translate(440.000000, 64.000000)" sketch:type="MSShapeGroup">
                <path d="M4.61914045,97.3956981 L18.3040768,97.3956981 L18.3040768,102 L-0.125,102 L-0.125,0 L18.3040768,0 L18.3040768,4.60416027 L4.61914045,4.60416027 L4.61914045,97.3956981 Z M30.1643549,75.4373952 L34.9084662,75.4373952 L34.9084662,97.3958397 L107.894793,97.3958397 L107.894793,35.7709253 L75.7808094,35.7709253 L75.7808094,4.60430194 L34.9084662,4.60430194 L34.9084662,57.7290865 L30.1643549,57.7290876 L30.1643549,4.60416143 L30.1643549,0.000142825119 L81.3460168,0.00014166647 L112.638905,30.3698912 L112.63905,102 L30.1643549,102 L30.1643549,93.145704 L30.1643549,75.4373952 Z M80.5249206,6.8179822 L80.5249206,31.166765 L105.613825,31.166765 L80.5249206,6.8179822 L80.5249206,6.8179822 L80.5249206,6.8179822 L80.5249206,6.8179822 Z" id="Shape"></path>
                <path d="M67.2510141,63.802288 L47.863802,47.0769231 L58.6292852,47.0769231 L79.5217673,66.8928446 L58.6294312,86.708766 L47.8638024,86.708766 L67.2507221,69.9832557 L13.0125389,69.9832557 L13.0128308,63.802288 L67.2510141,63.802288 Z" id="Path"></path>
            </g>
        </g>
    </g>
</svg>