<?xml version="1.0" encoding="UTF-8" standalone="no"?>
<svg width="546px" height="208px" viewBox="0 0 546 208" version="1.1" xmlns="http://www.w3.org/2000/svg" xmlns:xlink="http://www.w3.org/1999/xlink" xmlns:sketch="http://www.bohemiancoding.com/sketch/ns">
    <title>package-types</title>
    <description>Created with Sketch (http://www.bohemiancoding.com/sketch)</description>
    <defs></defs>
    <g id="Page-1" stroke="none" stroke-width="1" fill="none" fill-rule="evenodd" sketch:type="MSPage">
        <g id="Icons" sketch:type="MSLayerGroup" transform="translate(-37.000000, 15.000000)">
            <path d="M89.6667799,63 L81.2052937,63 C74.0130305,63 72.7438075,64.4415 72.7438075,72 L72.7438075,81 L61.4618259,81 C54.1849478,81 53.0003397,82.6815 53.0003397,90 L53.0003397,155.994 C52.9721348,163.2825 54.6912267,165 61.4618259,165 L154.538174,165 C161.308773,165 163.027865,163.2825 162.99966,155.994 L162.99966,90 C162.99966,82.6815 161.815052,81 154.538174,81 L143.256192,81 L143.256192,72 C143.256192,64.4415 141.98697,63 134.794706,63 L126.33322,63 C119.056342,63 117.871734,64.2885 117.871734,72 L117.871734,81 L98.1282661,81 L98.1282661,72 C98.1282661,64.2885 96.943658,63 89.6667799,63 Z" id="Shape" stroke="#F7F7F7" stroke-width="4.5" sketch:type="MSShapeGroup"></path>
            <g id="Shape-+-Path" transform="translate(440.000000, 64.000000)" fill="#F7F7F7" sketch:type="MSShapeGroup">
                <path d="M4.61914045,97.3956981 L18.3040768,97.3956981 L18.3040768,102 L-0.125,102 L-0.125,0 L18.3040768,0 L18.3040768,4.60416027 L4.61914045,4.60416027 L4.61914045,97.3956981 Z M30.1643549,75.4373952 L34.9084662,75.4373952 L34.9084662,97.3958397 L107.894793,97.3958397 L107.894793,35.7709253 L75.7808094,35.7709253 L75.7808094,4.60430194 L34.9084662,4.60430194 L34.9084662,57.7290865 L30.1643549,57.7290876 L30.1643549,4.60416143 L30.1643549,0.000142825119 L81.3460168,0.00014166647 L112.638905,30.3698912 L112.63905,102 L30.1643549,102 L30.1643549,93.145704 L30.1643549,75.4373952 Z M80.5249206,6.8179822 L80.5249206,31.166765 L105.613825,31.166765 L80.5249206,6.8179822 L80.5249206,6.8179822 L80.5249206,6.8179822 L80.5249206,6.8179822 Z" id="Shape"></path>
                <path d="M67.2510141,63.802288 L47.863802,47.0769231 L58.6292852,47.0769231 L79.5217673,66.8928446 L58.6294312,86.708766 L47.8638024,86.708766 L67.2507221,69.9832557 L13.0125389,69.9832557 L13.0128308,63.802288 L67.2510141,63.802288 Z" id="Path"></path>
            </g>
            <path d="M340.973373,143.097015 L352,66.603872 L326.680046,63 L321.502345,98.9191396 L306.997053,63.3236354 L283.287817,72.8626513 L298.299839,109.705523 L267.77348,85.8179403 L251.947819,105.787889 L279.416132,127.282764 L246.627703,122.614735 L243,147.776015 L313.021513,157.743985 L318.173822,158.476827 L319.436784,161.577144 L321.950564,160.565647 L327.617332,165 L331.305754,160.346233 L338.340362,161.347857 L340.014007,149.739769 L339.469742,153.514784 L343.144916,152.035934 L341.359768,147.657532 L343.442993,145.028954 L340.973373,143.097015 L340.973373,143.097015 L340.973373,143.097015 L340.973373,143.097015 Z M329.027124,66.5786394 L348.484904,69.3487389 L346.215105,85.0938747 L326.757325,82.3237752 L329.027124,66.5786394 L329.027124,66.5786394 L329.027124,66.5786394 L329.027124,66.5786394 Z M326.36541,85.0412154 L345.82319,87.8113149 L343.554495,103.555354 L324.096715,100.785254 L326.36541,85.0412154 L326.36541,85.0412154 L326.36541,85.0412154 L326.36541,85.0412154 Z M287.128589,74.7836193 L305.346591,67.4519064 L311.354491,82.1943211 L293.135385,89.5260339 L287.128589,74.7836193 L287.128589,74.7836193 L287.128589,74.7836193 L287.128589,74.7836193 Z M294.17203,92.0701371 L312.391136,84.7384243 L318.397932,99.4808389 L300.178826,106.813649 L294.17203,92.0701371 L294.17203,92.0701371 L294.17203,92.0701371 L294.17203,92.0701371 Z M256.241226,105.561893 L268.401649,90.2160903 L280.977171,100.055703 L268.815644,115.402603 L256.241226,105.561893 L256.241226,105.561893 L256.241226,105.561893 L256.241226,105.561893 Z M270.98498,117.099769 L283.146506,101.753966 L295.720924,111.593579 L283.561606,126.940479 L270.98498,117.099769 L270.98498,117.099769 L270.98498,117.099769 L270.98498,117.099769 Z M246.601207,145.443646 L249.388776,126.107803 L265.233205,128.363377 L262.445636,147.69922 L246.601207,145.443646 L246.601207,145.443646 L246.601207,145.443646 L246.601207,145.443646 Z M265.180213,148.08868 L267.966678,128.752837 L283.811107,131.008411 L281.023538,150.344254 L265.180213,148.08868 L265.180213,148.08868 L265.180213,148.08868 L265.180213,148.08868 Z M299.60144,152.989287 L283.757011,150.733713 L286.355798,132.713256 L285.826988,132.297467 L300.886482,144.081086 L299.60144,152.989287 L299.60144,152.989287 L299.60144,152.989287 L299.60144,152.989287 Z M313.424468,154.956332 L302.337121,153.37765 L303.394741,146.043743 L313.561362,154.000785 L313.424468,154.956332 L313.424468,154.956332 L313.424468,154.956332 L313.424468,154.956332 Z M313.05132,150.01623 L300.475798,140.176617 L307.238826,131.642517 L306.045415,128.713342 L298.305359,138.479451 L285.730941,128.638742 L297.89026,113.292939 L300.636981,115.442097 L314.157516,148.621855 L313.05132,150.01623 L313.05132,150.01623 L313.05132,150.01623 L313.05132,150.01623 Z M314.289994,148.945491 L315.448077,140.910557 L314.267914,141.385588 L308.261118,126.643173 L318.075567,122.693724 L318.289741,121.208293 L314.289994,148.945491 L314.289994,148.945491 L314.289994,148.945491 L314.289994,148.945491 Z M307.224474,124.100167 L301.216574,109.357752 L319.436784,102.026039 L320.632403,104.959602 L318.528202,119.551718 L307.224474,124.100167 L307.224474,124.100167 L307.224474,124.100167 L307.224474,124.100167 Z M324.797747,159.421404 L321.481369,158.948567 L324.797747,159.421404 L324.797747,159.421404 L324.797747,159.421404 L324.797747,159.421404 Z M333.005895,153.364485 C331.144572,153.364485 329.636525,151.865889 329.636525,150.01623 C329.636525,148.166572 331.144572,146.667975 333.005895,146.667975 C334.867218,146.667975 336.375265,148.167669 336.375265,150.01623 C336.374161,151.865889 334.867218,153.364485 333.005895,153.364485 L333.005895,153.364485 L333.005895,153.364485 L333.005895,153.364485 Z M338.231068,140.478311 L318.773288,137.708212 L321.043086,121.963076 L340.500866,124.733176 L338.231068,140.478311 L338.231068,140.478311 L338.231068,140.478311 L338.231068,140.478311 Z M321.435001,119.246733 L323.7048,103.501597 L343.16258,106.271697 L340.892782,122.015735 L321.435001,119.246733 L321.435001,119.246733 L321.435001,119.246733 L321.435001,119.246733 Z" id="Shape" fill="#F7F7F7" sketch:type="MSShapeGroup"></path>
            <text id="Plugins.-Color-Schem" sketch:type="MSTextLayer" font-family="Avenir Next" font-size="30" font-weight="normal" sketch:alignment="middle" fill="#FFFFFF">
                <tspan x="56.015" y="30">Plugins. Color Schemes. Templates.</tspan>
            </text>
        </g>
    </g>
</svg>